<?xml version="1.0" encoding="UTF-8" standalone="no"?>
<!-- Created with Inkscape (http://www.inkscape.org/) -->

<svg
   xmlns:dc="http://purl.org/dc/elements/1.1/"
   xmlns:cc="http://creativecommons.org/ns#"
   xmlns:rdf="http://www.w3.org/1999/02/22-rdf-syntax-ns#"
   xmlns:svg="http://www.w3.org/2000/svg"
   xmlns="http://www.w3.org/2000/svg"
   xmlns:inkscape="http://www.inkscape.org/namespaces/inkscape"
   version="1.1"
   width="744.09448"
   height="1052.3622"
   id="svg2">
  <desc
     id="desc4">/home/dan/university_notes/graphics/multi_layer_perceptron.dxf - scale = 0.350000</desc>
  <metadata
     id="metadata80">
    <rdf:RDF>
      <cc:Work
         rdf:about="">
        <dc:format>image/svg+xml</dc:format>
        <dc:type
           rdf:resource="http://purl.org/dc/dcmitype/StillImage" />
      </cc:Work>
    </rdf:RDF>
  </metadata>
  <defs
     id="defs6">
    <marker
       refX="0"
       refY="0"
       orient="auto"
       id="DistanceX"
       style="overflow:visible">
      <path
         d="M 3,-3 -3,3 M 0,-5 0,5"
         inkscape:connector-curvature="0"
         id="path9"
         style="stroke:#000000;stroke-width:0.5" />
    </marker>
    <pattern
       y="0"
       x="0"
       width="8"
       patternUnits="userSpaceOnUse"
       id="Hatch"
       height="8">
      <path
         id="path12"
         stroke-width="0.25"
         stroke="#000000"
         linecap="square"
         d="M8 4 l-4,4" />
      <path
         id="path14"
         stroke-width="0.25"
         stroke="#000000"
         linecap="square"
         d="M6 2 l-4,4" />
      <path
         id="path16"
         stroke-width="0.25"
         stroke="#000000"
         linecap="square"
         d="M4 0 l-4,4" />
    </pattern>
    <symbol
       id="*Model_Space" />
    <symbol
       id="*Paper_Space" />
  </defs>
  <g
     id="g20">
    <path
       d="m 161.22047,643.11024 a 37.204724,37.204724 0 1 0 -74.409446,0 37.204724,37.204724 0 1 0 74.409446,0 z"
       inkscape:connector-curvature="0"
       id="path22"
       style="fill:none;stroke:#000000;stroke-linecap:round" />
    <path
       d="m 161.22047,767.12598 a 37.204724,37.204724 0 1 0 -74.409446,0 37.204724,37.204724 0 1 0 74.409446,0 z"
       inkscape:connector-curvature="0"
       id="path24"
       style="fill:none;stroke:#000000;stroke-linecap:round" />
    <path
       d="m 161.22047,891.14173 a 37.204724,37.204724 0 1 0 -74.409446,0 37.204724,37.204724 0 1 0 74.409446,0 z"
       inkscape:connector-curvature="0"
       id="path26"
       style="fill:none;stroke:#000000;stroke-linecap:round" />
    <path
       d="m 161.22047,1015.1575 a 37.204724,37.204724 0 1 0 -74.409446,0 37.204724,37.204724 0 1 0 74.409446,0 z"
       inkscape:connector-curvature="0"
       id="path28"
       style="fill:none;stroke:#000000;stroke-linecap:round" />
    <path
       d="m 409.25197,953.14961 a 37.204724,37.204724 0 1 0 -74.40945,0 37.204724,37.204724 0 1 0 74.40945,0 z"
       inkscape:connector-curvature="0"
       id="path30"
       style="fill:none;stroke:#000000;stroke-linecap:round" />
    <path
       d="m 409.25197,829.13386 a 37.204724,37.204724 0 1 0 -74.40945,0 37.204724,37.204724 0 1 0 74.40945,0 z"
       inkscape:connector-curvature="0"
       id="path32"
       style="fill:none;stroke:#000000;stroke-linecap:round" />
    <path
       d="m 409.25197,705.11811 a 37.204724,37.204724 0 1 0 -74.40945,0 37.204724,37.204724 0 1 0 74.40945,0 z"
       inkscape:connector-curvature="0"
       id="path34"
       style="fill:none;stroke:#000000;stroke-linecap:round" />
    <path
       d="m 657.28346,829.13386 a 37.204724,37.204724 0 1 0 -74.40944,0 37.204724,37.204724 0 1 0 74.40944,0 z"
       inkscape:connector-curvature="0"
       id="path36"
       style="fill:none;stroke:#000000;stroke-linecap:round" />
    <path
       d="m 161.22047,643.11024 173.62205,62.00787"
       inkscape:connector-curvature="0"
       id="path38"
       style="fill:none;stroke:#000000;stroke-linecap:round" />
    <path
       d="M 334.84252,705.11811 161.22047,767.12598"
       inkscape:connector-curvature="0"
       id="path40"
       style="fill:none;stroke:#000000;stroke-linecap:round" />
    <path
       d="m 161.22047,767.12598 173.62205,62.00788"
       inkscape:connector-curvature="0"
       id="path42"
       style="fill:none;stroke:#000000;stroke-linecap:round" />
    <path
       d="M 334.84252,829.13386 161.22047,891.14173"
       inkscape:connector-curvature="0"
       id="path44"
       style="fill:none;stroke:#000000;stroke-linecap:round" />
    <path
       d="m 161.22047,891.14173 173.62205,62.00788"
       inkscape:connector-curvature="0"
       id="path46"
       style="fill:none;stroke:#000000;stroke-linecap:round" />
    <path
       d="M 334.84252,953.14961 161.22047,1015.1575"
       inkscape:connector-curvature="0"
       id="path48"
       style="fill:none;stroke:#000000;stroke-linecap:round" />
    <path
       d="M 161.22047,643.11024 334.84252,829.13386"
       inkscape:connector-curvature="0"
       id="path50"
       style="fill:none;stroke:#000000;stroke-linecap:round" />
    <path
       d="M 161.22047,643.11024 334.84252,953.14961"
       inkscape:connector-curvature="0"
       id="path52"
       style="fill:none;stroke:#000000;stroke-linecap:round" />
    <path
       d="M 161.22047,767.12598 334.84252,953.14961"
       inkscape:connector-curvature="0"
       id="path54"
       style="fill:none;stroke:#000000;stroke-linecap:round" />
    <path
       d="M 161.22047,1015.1575 334.84252,829.13386"
       inkscape:connector-curvature="0"
       id="path56"
       style="fill:none;stroke:#000000;stroke-linecap:round" />
    <path
       d="M 161.22047,891.14173 334.84252,705.11811"
       inkscape:connector-curvature="0"
       id="path58"
       style="fill:none;stroke:#000000;stroke-linecap:round" />
    <path
       d="M 409.25197,705.11811 582.87402,829.13386"
       inkscape:connector-curvature="0"
       id="path60"
       style="fill:none;stroke:#000000;stroke-linecap:round" />
    <path
       d="m 582.87402,829.13386 -173.62205,0"
       inkscape:connector-curvature="0"
       id="path62"
       style="fill:none;stroke:#000000;stroke-linecap:round" />
    <path
       d="M 409.25197,953.14961 582.87402,829.13386"
       inkscape:connector-curvature="0"
       id="path64"
       style="fill:none;stroke:#000000;stroke-linecap:round" />
    <path
       d="m 657.28346,829.13386 86.81103,0"
       inkscape:connector-curvature="0"
       id="path66"
       style="fill:none;stroke:#000000;stroke-linecap:round" />
    <path
       d="m 0,643.11024 86.811024,0"
       inkscape:connector-curvature="0"
       id="path68"
       style="fill:none;stroke:#000000;stroke-linecap:round" />
    <path
       d="m 0,767.12598 86.811024,0"
       inkscape:connector-curvature="0"
       id="path70"
       style="fill:none;stroke:#000000;stroke-linecap:round" />
    <path
       d="m 0,891.14173 86.811024,0"
       inkscape:connector-curvature="0"
       id="path72"
       style="fill:none;stroke:#000000;stroke-linecap:round" />
    <path
       d="m 0,1015.1575 86.811024,0"
       inkscape:connector-curvature="0"
       id="path74"
       style="fill:none;stroke:#000000;stroke-linecap:round" />
    <path
       d="M 334.84252,705.11811 161.22047,1015.1575"
       inkscape:connector-curvature="0"
       id="path76"
       style="fill:none;stroke:#000000;stroke-linecap:round" />
  </g>
</svg>
