<?xml version="1.0" encoding="UTF-8" standalone="no"?>
<!-- Created with Inkscape (http://www.inkscape.org/) -->

<svg
   xmlns:dc="http://purl.org/dc/elements/1.1/"
   xmlns:cc="http://creativecommons.org/ns#"
   xmlns:rdf="http://www.w3.org/1999/02/22-rdf-syntax-ns#"
   xmlns:svg="http://www.w3.org/2000/svg"
   xmlns="http://www.w3.org/2000/svg"
   xmlns:sodipodi="http://sodipodi.sourceforge.net/DTD/sodipodi-0.dtd"
   xmlns:inkscape="http://www.inkscape.org/namespaces/inkscape"
   width="338.21005"
   height="225.9375"
   id="svg2"
   version="1.1"
   inkscape:version="0.48.4 r9939"
   sodipodi:docname="tri_spans.svg">
  <defs
     id="defs4" />
  <sodipodi:namedview
     id="base"
     pagecolor="#ffffff"
     bordercolor="#666666"
     borderopacity="1.0"
     inkscape:pageopacity="0.0"
     inkscape:pageshadow="2"
     inkscape:zoom="1.979899"
     inkscape:cx="193.29442"
     inkscape:cy="103.57143"
     inkscape:document-units="px"
     inkscape:current-layer="layer1"
     showgrid="true"
     inkscape:window-width="1276"
     inkscape:window-height="985"
     inkscape:window-x="0"
     inkscape:window-y="18"
     inkscape:window-maximized="0"
     fit-margin-top="0"
     fit-margin-left="0"
     fit-margin-right="0"
     fit-margin-bottom="0">
    <inkscape:grid
       type="xygrid"
       id="grid2985"
       empspacing="5"
       visible="true"
       enabled="true"
       snapvisiblegridlinesonly="true"
       originx="19.460996px"
       originy="5.0000003px" />
  </sodipodi:namedview>
  <metadata
     id="metadata7">
    <rdf:RDF>
      <cc:Work
         rdf:about="">
        <dc:format>image/svg+xml</dc:format>
        <dc:type
           rdf:resource="http://purl.org/dc/dcmitype/StillImage" />
        <dc:title></dc:title>
      </cc:Work>
    </rdf:RDF>
  </metadata>
  <g
     inkscape:label="Layer 1"
     inkscape:groupmode="layer"
     id="layer1"
     transform="translate(19.460996,-831.42468)">
    <path
       sodipodi:type="arc"
       style="fill:none;stroke:#008000"
       id="path2987"
       sodipodi:cx="0"
       sodipodi:cy="1052.3622"
       sodipodi:rx="10"
       sodipodi:ry="10"
       d="m 10,1052.3622 c 0,5.5228 -4.4771525,10 -10,10 -5.5228475,0 -10,-4.4772 -10,-10 0,-5.5229 4.4771525,-10 10,-10 5.5228475,0 10,4.4771 10,10 z"
       transform="matrix(0.47619048,0,0,0.47619048,4e-8,551.23733)" />
    <path
       sodipodi:type="arc"
       style="fill:none;stroke:#008000"
       id="path2989"
       sodipodi:cx="300"
       sodipodi:cy="1052.3622"
       sodipodi:rx="10"
       sodipodi:ry="10"
       d="m 310,1052.3622 c 0,5.5228 -4.47715,10 -10,10 -5.52285,0 -10,-4.4772 -10,-10 0,-5.5229 4.47715,-10 10,-10 5.52285,0 10,4.4771 10,10 z"
       transform="matrix(0.47619048,0,0,0.47619048,157.14286,551.23733)" />
    <path
       sodipodi:type="arc"
       style="fill:none;stroke:#008000"
       id="path2991"
       sodipodi:cx="160"
       sodipodi:cy="852.36218"
       sodipodi:rx="10"
       sodipodi:ry="10"
       d="m 170,852.36218 c 0,5.52285 -4.47715,10 -10,10 -5.52285,0 -10,-4.47715 -10,-10 0,-5.52284 4.47715,-10 10,-10 5.52285,0 10,4.47716 10,10 z"
       transform="matrix(0.47619048,0,0,0.47619048,83.809523,446.47543)" />
    <path
       style="fill:none;stroke:#000000;stroke-width:1px;stroke-linecap:butt;stroke-linejoin:miter;stroke-opacity:1"
       d="M 160,852.36218 0,1052.3622 l 300,0 z"
       id="path2993"
       inkscape:connector-curvature="0" />
    <text
       xml:space="preserve"
       style="font-size:20px;font-style:normal;font-weight:normal;text-align:center;line-height:125%;letter-spacing:0px;word-spacing:0px;text-anchor:middle;fill:#000000;fill-opacity:1;stroke:none;font-family:Sans"
       x="-10"
       y="1042.3622"
       id="text2995"
       sodipodi:linespacing="125%"><tspan
         sodipodi:role="line"
         id="tspan2997"
         x="-10"
         y="1042.3622">v<tspan
   style="font-size:65.00091553%;text-align:end;text-anchor:end;baseline-shift:sub"
   id="tspan2999">0</tspan></tspan></text>
    <text
       xml:space="preserve"
       style="font-size:20px;font-style:normal;font-weight:normal;text-align:center;line-height:125%;letter-spacing:0px;word-spacing:0px;text-anchor:middle;fill:#000000;fill-opacity:1;stroke:none;font-family:Sans"
       x="160"
       y="842.36218"
       id="text2995-0"
       sodipodi:linespacing="125%"><tspan
         sodipodi:role="line"
         id="tspan2997-9"
         x="160"
         y="842.36218">v<tspan
   style="font-size:65.00091553%;text-align:end;text-anchor:end;baseline-shift:sub"
   id="tspan2999-4">1</tspan></tspan></text>
    <text
       xml:space="preserve"
       style="font-size:20px;font-style:normal;font-weight:normal;text-align:center;line-height:125%;letter-spacing:0px;word-spacing:0px;text-anchor:middle;fill:#000000;fill-opacity:1;stroke:none;font-family:Sans"
       x="310"
       y="1042.3622"
       id="text2995-06"
       sodipodi:linespacing="125%"><tspan
         sodipodi:role="line"
         id="tspan2997-5"
         x="310"
         y="1042.3622">v<tspan
   style="font-size:65.00091553%;text-align:end;text-anchor:end;baseline-shift:sub"
   id="tspan2999-0">2</tspan></tspan></text>
    <path
       style="fill:none;stroke:#00ffff;stroke-width:1px;stroke-linecap:butt;stroke-linejoin:miter;stroke-opacity:1"
       d="m 34.460996,210.9375 c 270.000004,0 270.000004,0 270.000004,0"
       id="path3161"
       inkscape:connector-curvature="0"
       transform="translate(-19.460996,831.42468)" />
    <path
       style="fill:none;stroke:#00ffff;stroke-width:1px;stroke-linecap:butt;stroke-linejoin:miter;stroke-opacity:1"
       d="m 44.460996,200.9375 c 250.000004,0 250.000004,0 250.000004,0"
       id="path3163"
       inkscape:connector-curvature="0"
       transform="translate(-19.460996,831.42468)" />
    <path
       style="fill:none;stroke:#00ffff;stroke-width:1px;stroke-linecap:butt;stroke-linejoin:miter;stroke-opacity:1"
       d="m 54.460996,190.9375 c 230.000004,0 230.000004,0 230.000004,0"
       id="path3165"
       inkscape:connector-curvature="0"
       transform="translate(-19.460996,831.42468)" />
    <path
       style="fill:none;stroke:#00ffff;stroke-width:1px;stroke-linecap:butt;stroke-linejoin:miter;stroke-opacity:1"
       d="m 64.460996,180.9375 c 210.000004,0 210.000004,0 210.000004,0"
       id="path3167"
       inkscape:connector-curvature="0"
       transform="translate(-19.460996,831.42468)" />
    <path
       style="fill:none;stroke:#00ffff;stroke-width:1px;stroke-linecap:butt;stroke-linejoin:miter;stroke-opacity:1"
       d="m 74.460996,170.9375 c 190.000004,0 190.000004,0 190.000004,0"
       id="path3169"
       inkscape:connector-curvature="0"
       transform="translate(-19.460996,831.42468)" />
    <path
       style="fill:none;stroke:#00ffff;stroke-width:1px;stroke-linecap:butt;stroke-linejoin:miter;stroke-opacity:1"
       d="m 84.460996,160.9375 c 170.000004,0 170.000004,0 170.000004,0"
       id="path3171"
       inkscape:connector-curvature="0"
       transform="translate(-19.460996,831.42468)" />
    <path
       style="fill:none;stroke:#00ffff;stroke-width:1px;stroke-linecap:butt;stroke-linejoin:miter;stroke-opacity:1"
       d="m 94.460996,150.9375 c 150.000004,0 150.000004,0 150.000004,0"
       id="path3173"
       inkscape:connector-curvature="0"
       transform="translate(-19.460996,831.42468)" />
  </g>
</svg>
